<?xml version="1.0" encoding="utf-8"?>
<!-- Generator: Adobe Illustrator 20.1.0, SVG Export Plug-In . SVG Version: 6.00 Build 0)  -->
<svg version="1.1" id="logo_x5F_black_xA0_Image_1_"
	 xmlns="http://www.w3.org/2000/svg" xmlns:xlink="http://www.w3.org/1999/xlink" x="0px" y="0px" viewBox="0 0 645.1 102.8"
	 style="enable-background:new 0 0 645.1 102.8;" xml:space="preserve">
<style type="text/css">
	.st0{fill:#FFFFFF;}
	.st1{stroke:#000000;stroke-width:0.25;stroke-miterlimit:10;}
</style>
<g>
	<path d="M101.6,92.8c-0.4-8.2-0.8-16.5-1.2-24.8s-0.8-16.6-1.5-24.9c-0.2,8.3-0.5,16.6-0.7,24.8c-0.2,8.3-0.4,16.6-0.6,24.8
		c-2.2,0.6-85.1,0.7-87.4,0.1c-0.5-1.9-0.6-81-0.1-84.3c0.8,0,1.6-0.1,2.5-0.1c17.1,0,34.2,0,51.2,0c1.7,0,3,1.2,4.4,3
		c0.7,0.9,0.7,0.9,1.6,1.8c4.3,4.3,8.6,8.6,12.9,12.9c2.7,2.7,5.8,4.2,9.7,4.1c4.9-0.2,9.9-0.1,14.8,0c3.1,0.1,5.8-1,8-3.2
		l14.7-14.8c0,0,0,0,0.1-0.1c0.6-0.8,0.7-0.8,1.3-1.7c1.2-1.9,2-2,3.7-2c19.3,0,38.7,0,58,0c0.9,0,1.7,0,2.5,0
		c0.6,2.1,0.7,80.7,0.3,84.4C193.8,93.4,104.2,93.5,101.6,92.8z M112,74.9c4.2-0.5,7.9-2.4,11.8-3.7c3.9-1.3,7.8-2.7,11.6-4.1
		c4-1.4,7.9-2.8,11.9-4.3c3.9-1.4,7.8-2.9,12.1-4.5c-1.2-2.7-2.3-5.3-3.5-8c-3.9,2.1-7.7,4.1-11.4,6.1c-3.6,2-7.3,3.9-10.9,5.9
		c-3.7,2-7.5,3.9-11.1,6C119,70.5,115.1,72,112,74.9z M44.3,50.5c-0.9,2.1-1.8,4.1-2.7,6.1c-0.7,1.7-0.7,1.8,0.9,2.4
		c2.4,0.9,4.9,1.6,7.3,2.5c11.3,4.1,22.6,8.2,33.8,12.3c0.7,0.2,1.3,0.5,2,0.8c0.2-0.1,0.3-0.3,0.5-0.4c-0.2-0.5-0.3-1.2-0.7-1.6
		c-0.4-0.4-1-0.6-1.5-0.9c-8-4.3-16.1-8.7-24.1-13C54.6,56,49.6,53.3,44.3,50.5z M113.2,83.5c0.6,0,1.3,0.1,2,0
		c1.2-0.2,2.3-0.4,3.5-0.6c2.4-0.4,4.8-0.6,7.2-1c3.1-0.5,6.2-1,9.4-1.5c2.4-0.4,4.8-0.6,7.2-1c0.6-0.1,1.2-0.6,1.8-0.9
		c-0.6-2-1.1-3.9-1.7-6c-0.9,0.2-1.6,0.3-2.3,0.6c-6.5,2.1-12.9,4.1-19.3,6.2c-2.3,0.7-4.5,1.6-6.8,2.3
		C112.8,81.8,112.7,82.4,113.2,83.5z M85.3,81.1c-4.6-1.5-9.2-3-13.8-4.4c-4.6-1.4-9-3.2-13.8-4.3c-0.6,2.2-1.1,4.1-1.7,6.2
		c1.1,0.3,2,0.6,3,0.8c0.8,0.2,1.7,0.2,2.6,0.3c5.1,0.8,10.2,1.5,15.3,2.3c2.5,0.4,4.9,0.9,7.4,1.3c0.2,0,0.5,0,0.8,0
		C85.1,82.6,85.2,81.9,85.3,81.1z M132.8,45.4c-3.7,4-7.5,7.7-10.8,11.8c-3.3,4.1-7.5,7.5-10.5,11.9c0.1,0.2,0.3,0.3,0.4,0.5
		c8.5-6.3,17-12.5,25.7-19C135.9,48.8,134.4,47.2,132.8,45.4z M86.6,68.2c0-1,0.2-1.6,0-1.8c-6.3-7-12.6-13.9-19-21
		c-1.5,1.9-3.5,3.1-4.6,5.4C70.7,56.5,78.4,62.2,86.6,68.2z"/>
	<path class="st0" d="M112,74.9c3.1-2.9,7-4.5,10.6-6.5c3.7-2.1,7.4-4,11.1-6c3.6-2,7.3-4,10.9-5.9c3.7-2,7.4-4,11.4-6.1
		c1.2,2.7,2.3,5.3,3.5,8c-4.3,1.6-8.2,3-12.1,4.5c-3.9,1.4-7.9,2.9-11.9,4.3c-3.9,1.4-7.7,2.8-11.6,4.1
		C119.9,72.6,116.2,74.5,112,74.9z"/>
	<path class="st0" d="M44.3,50.5c5.3,2.8,10.3,5.5,15.4,8.3c8,4.3,16.1,8.7,24.1,13c0.5,0.3,1.2,0.5,1.5,0.9
		c0.4,0.4,0.5,1.1,0.7,1.6c-0.2,0.1-0.3,0.3-0.5,0.4c-0.7-0.3-1.3-0.6-2-0.8c-11.3-4.1-22.6-8.2-33.8-12.3c-2.4-0.9-4.9-1.7-7.3-2.5
		c-1.6-0.6-1.7-0.8-0.9-2.4C42.5,54.6,43.4,52.6,44.3,50.5z"/>
	<path class="st0" d="M113.2,83.5c-0.5-1.1-0.3-1.7,0.8-2c2.3-0.7,4.5-1.5,6.8-2.3c6.4-2.1,12.9-4.1,19.3-6.2
		c0.7-0.2,1.5-0.3,2.3-0.6c0.6,2.1,1.1,3.9,1.7,6c-0.6,0.3-1.2,0.8-1.8,0.9c-2.4,0.4-4.8,0.7-7.2,1c-3.1,0.5-6.2,1-9.4,1.5
		c-2.4,0.4-4.8,0.7-7.2,1c-1.2,0.2-2.3,0.5-3.5,0.6C114.5,83.6,113.8,83.5,113.2,83.5z"/>
	<path class="st0" d="M85.3,81.1c-0.1,0.8-0.2,1.5-0.2,2.2c-0.3,0-0.6,0-0.8,0c-2.5-0.4-4.9-0.9-7.4-1.3c-5.1-0.8-10.2-1.5-15.3-2.3
		c-0.9-0.1-1.7-0.1-2.6-0.3c-1-0.2-1.9-0.5-3-0.8c0.6-2.1,1.1-4,1.7-6.2c4.8,1.1,9.2,2.9,13.8,4.3C76.1,78.1,80.7,79.6,85.3,81.1z"
		/>
	<path class="st0" d="M132.8,45.4c1.7,1.8,3.2,3.3,4.9,5.1c-8.7,6.4-17.2,12.7-25.7,19c-0.1-0.2-0.3-0.3-0.4-0.5
		c3-4.4,7.1-7.8,10.5-11.9C125.3,53.1,129,49.5,132.8,45.4z"/>
	<path class="st0" d="M86.6,68.2c-8.2-6-15.9-11.7-23.7-17.5c1.1-2.3,3.1-3.5,4.6-5.4c6.4,7.1,12.7,14,19,21
		C86.8,66.6,86.6,67.2,86.6,68.2z"/>
</g>
<path d="M327.4,90.7c-4.5,0-8.5,0-12.4,0c-6.1-0.1-6,1.3-7.2-5.9c-0.5-2.9-1.4-5.8-1.8-8.7c-0.3-2.3-1.6-2.7-3.6-2.7
	c-4.6,0.1-9.3,0.1-13.9,0c-2.3-0.1-3.4,0.9-3.8,3.1c-0.8,4-1.9,8-2.5,12.1c-0.3,1.7-0.9,2.3-2.6,2.2c-4.5-0.1-9.1-0.1-13.6,0
	c-2.1,0-2.5-0.8-2-2.7c3-10.7,6.1-21.3,9-32c3.2-11.6,6.2-23.2,9.3-34.8c0.8-3,1.6-6,2.6-8.9c0.3-0.7,1.4-1.6,2.2-1.6
	c5.9-0.1,11.7-0.1,17.6,0c0.8,0,1.9,1.1,2.1,1.9c3,10.9,5.7,21.8,8.6,32.8c2.6,9.8,5.4,19.6,8,29.4C324.8,79.9,326,85,327.4,90.7z
	 M289.5,58.9c3,0,5.4,0,7.9,0c3.8,0,4-0.2,3.4-4.1c-0.8-4.9-1.7-9.7-2.7-14.5c-0.6-2.9-1.4-5.7-2.1-8.5c-0.3,0-0.7,0.1-1,0.1
	C293.1,40.7,291.3,49.5,289.5,58.9z"/>
<path d="M389.2,50.7c0-12.1,0.1-24.3-0.1-36.4c0-2.8,0.8-3.7,3.7-3.7c9.1,0.2,18.3-0.1,27.4,0.1c3.2,0.1,6.5,0.8,9.6,1.7
	c7,2.2,9.4,8.3,9.9,14.6c0.5,7.3,0.2,14.8-0.9,22c-1.8,11.7-9,14.7-19,15.5c-3.4,0.3-6.8,0.1-10.2,0c-2.1-0.1-2.9,0.8-2.9,2.9
	c0.1,6.7,0,13.4,0.1,20c0,2.2-0.6,3.2-3,3.1c-3.8-0.2-7.6-0.2-11.4,0c-2.6,0.1-3.4-0.8-3.4-3.3C389.3,75.2,389.2,63,389.2,50.7z
	 M406.9,37.6c0,3.1-0.1,6.2,0.1,9.2c0,0.8,0.8,2.3,1.3,2.3c3.6,0.1,7.2,0.2,10.7-0.4c1.1-0.2,2.7-2.2,2.9-3.5
	c0.5-4.2,0.8-8.6,0.6-12.9c-0.3-4.7-1.5-5.7-6.4-6.1c-2.2-0.2-4.5-0.1-6.8-0.1c-1.7,0-2.4,0.8-2.4,2.4
	C407,31.6,406.9,34.6,406.9,37.6z"/>
<path d="M352.9,92.5c-5.5,0-11.4-1.9-17.4-3.1c-1.9-0.4-3-1.6-2.6-3.8c0.5-3.5,0.9-6.9,1.3-10.4c0.2-2.2,1.7-1.5,3-1.3
	c5.9,0.9,11.7,2.1,17.6,2.6c4.9,0.4,7.1-1.1,7.8-3.8c1.4-6.2,0-11-4.2-12.9c-3.5-1.6-7.4-2.5-11-3.8c-10.8-3.8-14.2-8.6-14.8-21.1
	c-0.3-6,0.2-11.9,3.7-17.1c3.6-5.3,9.1-6.9,14.8-7.7c8.2-1.2,16.4,0,24.5,1.6c2.1,0.4,2.6,1.5,2.4,3.5c-0.4,3.4-0.7,6.8-0.8,10.1
	c-0.1,2.3-1,2.6-3.2,2.2c-5.3-1-10.7-1.9-16.1-2.4c-2.6-0.2-5.7-0.6-6.9,3.1c-1.4,4.5-0.7,8.9,2.5,10.9c2.7,1.6,5.8,2.5,8.7,3.7
	c3.7,1.6,7.5,2.8,10.9,4.8c4.5,2.6,6.3,7.1,7.1,12.1c1.1,7.1,1.2,14.1-1.7,20.9c-2.4,5.8-7.1,8.7-12.8,10.1
	C361.8,91.5,357.7,92.5,352.9,92.5z"/>
<path class="st1" d="M256.1,74.3c0.5,4.4,1.1,8.8,1.5,13.3c0.1,0.6-0.6,1.7-1.1,1.8c-11.7,3-23.5,4.2-35-0.8
	c-5.5-2.4-8.5-7-9.5-12.5c-1.1-6.2-1.6-12.6-1.8-18.9c-0.2-7.6,0-15.2,0.5-22.8c0.4-6.7,2.1-13.2,7-18.3c4.7-4.9,10.9-6.4,17.2-6.4
	c6.8,0,13.6,1.3,20.5,2c1.8,0.2,2.2,1.1,2,2.7c-0.4,3.7-0.9,7.3-1.2,11c-0.2,2-1.4,1.8-2.9,1.6c-5.2-0.7-10.4-1.4-15.6-1.7
	c-5-0.3-7.7,2.1-8.5,7c-0.7,4.3-1.2,8.6-1.2,12.9c0,7.6,0,15.2,0.7,22.8c0.5,6.4,4.3,9.1,10.8,8.4C244.8,75.9,250.1,75.1,256.1,74.3
	z"/>
<path d="M499.9,48.1c-0.3-3.4-0.7-7.2-1-10.9c0-0.6,0.7-1.6,1.3-1.7c10.1-2.9,20.4-4.1,30.6-0.6c5.9,2.1,7.8,7.5,8,12.8
	c0.5,13.8,0.2,27.6,0.3,41.4c0,2.1-1,2.7-2.9,2.6c-2.6-0.1-5.1-0.1-7.7,0c-2.1,0-4.1,0.2-4.9-2.6c-0.1-0.4-2.2-0.7-2.9-0.3
	c-4.1,2.1-8.2,3.7-12.9,3.4c-6.4-0.4-10.8-4.3-11.6-11.4c-0.5-4.5-0.1-9.3,0.6-13.8c0.9-5.6,5.1-8.3,10.4-8.9
	c3.8-0.5,7.6-0.5,11.4-0.5c2.3,0,3.3-0.6,3.4-3.1c0-6.4-1.7-8.5-8.2-8.1C509.3,46.6,504.9,47.4,499.9,48.1z M521.9,72.9
	c0-4.4,0-4.4-3.7-4.4c-4.6,0-5.9,1.3-6,5.7c0,4,1,5.6,3.5,5.7C519.6,80,521.9,77.3,521.9,72.9z"/>
<path d="M623.7,67.4c-3.5,0-7,0.1-10.5,0c-1.8,0-2.5,0.7-2.6,2.5c-0.3,5.5,2.5,8.8,8,8.5c4.3-0.3,8.5-1.1,12.7-2
	c3.6-0.7,3.9-0.6,4.2,2.9c0.2,2.5,0.7,4.9,0.8,7.3c0,0.9-0.7,2.4-1.4,2.6c-8.6,1.9-17.3,4-26.2,1.8c-7.5-1.8-11.9-7-13.6-14.1
	c-2.6-10.7-2.8-21.7,0.5-32.3c3.1-9.8,9.4-12.1,17.8-13c4.5-0.5,9,0.1,13.2,2.3c7.4,3.9,8.9,11.1,9.8,18.5c0.5,4,0.1,8,0.3,12
	c0.1,2.1-0.6,3-2.8,2.9C630.4,67.3,627,67.4,623.7,67.4C623.7,67.4,623.7,67.4,623.7,67.4z M615.6,56.5c5.4,0,5.5,0,5.4-2.7
	c-0.1-6.2-1.7-8.8-5.4-8.7c-3.2,0-5.1,2.8-5.1,7.7C610.5,56.5,610.5,56.5,615.6,56.5z"/>
<path d="M448.5,50.5c0-12,0.1-24.1-0.1-36.1c0-2.7,0.7-3.7,3.6-3.7c3.4-0.1,7.1,0,10.8,0c2.6,0,3.4,0.8,3.3,3.3
	c-0.1,15.5,0,31.1,0,46.6c0,3.4,0,6.8,0,10.2c0,4.2,0,4.2,4.3,4.2c5.6,0,11.1,0.1,16.7,0c2.4-0.1,3.4,0.7,3.3,3.2
	c-0.1,3.3-0.1,6.6,0,9.9c0,1.9-0.7,2.8-2.7,2.8c-12.2,0-24.5-0.1-36.7,0c-2.5,0-2.5-1.5-2.5-3.2C448.5,75.2,448.5,62.9,448.5,50.5z"
	/>
<path d="M567.5,31.4c7.8,0.4,10.2,1.2,14.6,1.7c2.1,0.2,2.8,1.3,2.5,3.3c-0.4,2.5-0.7,5.1-0.9,7.6c-0.2,2.1-1.1,2.4-3,2.1
	c-3.9-0.6-7.9-1-11.9-1.3c-2.3-0.1-4.4,0.6-4.8,3.3c-0.4,2.7,1.4,3.9,3.6,4.7c3.1,1.1,6.2,2.1,9.3,3.1c5.6,1.8,9.3,5.5,9.6,11.5
	c0.2,4.9,0.3,10-1,14.6c-2.1,7.3-8.6,9.9-15.5,9.8c-7-0.1-14.1-1.4-21.1-2.3c-0.7-0.1-1.6-1.7-1.6-2.5c0.3-2.9,1.1-5.6,1.5-8.5
	c0.3-2.4,1.5-2.3,3.5-1.9c4.5,0.8,9.1,1.4,13.7,2c2.6,0.3,4.6-0.8,5-3.5c0.4-2.5-0.4-4.6-3.3-5.5c-3-0.9-6-2.1-8.9-3.2
	C549.2,62.9,548,58.9,548,48c0-6.4,2-12.3,8.8-14.4C559.4,32.8,560.8,31.8,567.5,31.4z"/>
</svg>
