<svg version="1" xmlns="http://www.w3.org/2000/svg" width="897" height="664" viewBox="0 0 8970 6640"><path d="M0 3320V0h8970v6640H0V3320z" fill="#454545"/><g fill="#fff"><path d="M0 3320V0h8970v6640H0V3320zm3060 469c91-21 157-90 202-211 11-32 24-58 27-58l158 33 151 34 10-38c5-21 7-41 4-44s-77-5-165-5h-159l6-23 16-75c9-39 16-52 29-52 10 0 106 14 214 30 234 36 242 36 202 11-16-10-39-28-49-40-18-20-28-21-203-21-171 0-184-1-179-17l11-74 6-55 155 29c85 16 156 28 158 26s1-21-2-41l-4-38h-310l6-31c3-17 6-50 6-74v-42l147 28c81 16 148 28 149 26 1-1 4-20 6-42l3-40-153-3-152-3v-37c0-20-3-53-6-73l-6-36 161 30c89 16 164 28 167 25s8-22 11-42l6-36h-351l-6-33c-10-53-59-121-102-142-22-11-69-21-105-23-195-12-298 139-343 503-37 296-30 461 22 565 31 63 61 88 129 106 59 16 76 16 133 3zm910-15c19-8 49-28 65-43l30-28 145 28c191 37 180 37 180-11v-40h-156c-119 0-155-3-152-12 17-63 44-128 52-128 6 0 67 11 136 24s128 22 132 19c5-2 8-22 8-44v-39h-282l6-27 11-65c3-21 11-38 18-38s65 10 129 22c65 12 120 20 122 17 2-2 7-21 11-41l7-38h-280l-4-67c-3-38-4-70-2-71 1-2 63 8 137 22l144 26c6 0 13-18 15-40l4-40h-315l-15-27c-29-57-81-90-166-108l-55-11 3-39c2-22 9-43 15-47 19-12 96-9 160 6 31 7 59 11 61 7 2-3 7-27 10-53 4-27 12-48 18-48s76 12 155 27c158 29 163 29 163-29v-28h-322l6-32 13-70c3-21 10-38 16-38s74 12 150 26c76 15 139 25 141 23s6-21 9-41l6-38h-174c-122 0-191-4-232-15-149-39-280-5-335 85-51 83-98 340-84 458 16 138 70 191 219 217 38 6 38 7 35 48l-3 42-57 9c-54 9-100 2-194-29-19-6-22 2-48 139-15 80-25 150-22 155 6 9 108 38 161 45 50 7 168-5 205-20zm-2405-38l38-29 142 26c78 15 147 27 153 27 7 0 12-16 12-40v-40h-299l19-42c11-24 20-50 20-58 1-39 12-40 140-16 69 13 126 23 127 22l9-44 7-42h-268l3-65c2-41 8-65 15-65s65 10 129 22c65 12 120 20 122 17 2-2 6-21 10-41l7-38h-279l-7-40c-4-22-17-56-31-75-13-19-20-35-16-35l162 30c85 16 161 30 168 30s12-15 12-40v-40h-180c-99 0-180-4-180-8 0-5 9-17 19-26 11-10 28-38 38-62 21-52 17-52 183-20 136 26 140 26 140-31v-33h-296l9-71c6-44 14-68 21-66 23 9 266 51 269 46 3-2 7-21 11-41l7-38h-300l-7-45c-3-25-16-60-29-78l-22-33 171 33c94 18 177 33 184 33s12-15 12-40v-40l-187-2c-104-2-276-2-384 0l-196 3-17 162-51 522c-19 198-37 379-41 403l-5 43 199-3 199-3 38-29zm574-93c19-202 21-214 40-211 16 3 31 80 55 281l7 57h221l-6-27c-20-99-37-205-34-212 2-4 72 6 156 22s154 28 156 26 1-21-2-41l-4-38h-316l-9-52c-8-45-7-56 9-74l18-21 143 28 150 29c4 0 7-18 7-40v-40h-289l19-42c11-24 20-50 20-58 1-40 12-41 133-16 64 13 119 21 122 18s5-20 5-39v-33h-241l6-35 10-70c3-19 9-35 12-35s55 9 115 21c60 11 111 19 113 17 2-1 6-20 10-40l7-38h-252v-70c0-53 3-70 14-70 12 0 175 31 233 45 15 3 23 0 27-12l11-40 6-23h-297l-12-45c-7-25-27-62-46-83l-34-37-190-3-190-3-6 48c-3 26-20 190-36 363l-50 503-20 203c0 11 21 14 99 14h98l12-127zm2471 120c-1-18 32-350 36-370 4-21 10-23 74-23h70l-5 28c-6 32-35 329-35 355 0 16 9 17 98 15l97-3 3-27c2-16 9-28 16-28s70 12 141 26c70 14 131 22 135 17 4-4 11-23 15-40l7-33h-305l6-71c3-39 8-74 11-76 3-3 73 8 156 24 83 17 152 27 154 24 3-3 7-23 11-44l7-37h-334l6-22c3-13 6-41 6-63 1-68-1-68 178-33 89 17 164 29 166 27s7-21 11-41l7-38h-353l7-72c3-40 9-76 13-79 3-4 84 9 180 28 95 19 175 33 176 31 2-2 6-20 10-40l7-38h-372v-27c0-16 3-52 6-80 5-40 11-53 23-53 15 0 294 52 347 65 18 4 23-1 32-35 5-21 7-42 4-45s-94-5-202-5h-196l12-132c7-73 15-150 19-170l5-38h-100c-55 0-100 1-100 3a62561 62561 0 0 1-40 384c0 2-32 3-70 3h-71l5-32c3-18 10-85 16-148l16-162 6-48h-101c-79 0-101 3-101 14l-15 157-50 509c-19 201-37 384-41 408l-5 42h100c56 0 101-3 101-7zm880-50c26-129 16-118 103-121l76-3 3 88 3 88 103 3 102 3v-26c0-30-6-30 126-4 58 11 113 18 120 15 8-3 14-20 14-41v-35h-258l-4-70c-2-42 1-70 7-70s66 11 135 25c68 13 125 23 126 22l9-44 7-43h-292v-71c0-69 1-71 23-66 61 15 267 50 271 46 2-2 6-21 9-41l6-38h-306l-7-31c-3-17-6-51-6-76 0-38 3-44 18-39 51 15 294 56 302 51 6-4 10-22 10-41v-34h-328l-4-72c-2-40-2-75 0-78 1-2 78 10 170 27 181 33 182 33 182-24v-33h-360v-152l28 5c135 27 332 60 335 56 2-2 7-21 10-41l6-38h-376l-7-31c-7-35-8-129-2-129l189 35c102 19 190 35 196 35s11-17 11-40v-39l-192-3c-106-2-265-1-353 2l-160 5-46 195a94690 94690 0 0 0-216 913c-4 15 5 17 101 17h105l11-57zm865 45c2-7 14-110 25-227 20-213 29-265 31-180 0 24 12 127 27 229l27 185h105c103 0 105 0 102-22-4-28-6-28 135-2 63 12 115 20 117 18s6-21 9-41l6-38h-276l-12-71c-6-40-10-73-9-75 2-1 68 10 148 25 80 16 148 26 153 24 4-2 7-22 7-44v-39h-316l-12-72c-6-40-10-74-8-75 1-1 75 11 164 28s168 29 177 25c9-3 15-18 15-40v-36l-182-2-183-3-9-73c-5-40-7-75-4-77 3-3 89 11 192 31 104 19 189 34 191 32s6-20 10-40l7-38-188-1h-198c-5 1-6-4-4-11l24-72c10-32 24-61 31-63 11-4 240 34 321 54 20 5 22 2 22-41v-46h-340l25-67c14-37 27-68 29-70s61 8 132 22c176 34 174 34 174-15v-40h-299l23-62c13-34 29-64 36-66 6-2 63 6 126 18 63 13 116 21 118 19 3-2 7-21 11-42l7-37-237 2-238 3-68 200c-37 110-68 193-68 184-1-18 26-293 34-351l5-38h-198l-6 48c-12 95-106 1049-106 1071 0 16 189 15 195-1zm1035-19c0-27 3-30 23-26 54 14 258 49 261 46 2-2 6-21 9-41l6-38h-292l6-66c2-36 7-68 11-71 3-3 66 5 138 19 73 14 136 24 141 21 4-2 7-22 7-44v-39h-145c-111 0-144-3-143-12 2-10-27-14-116-16l-118-3 6-31c3-17 6-46 6-64v-34h61c34 0 146 16 250 36s195 34 204 31c9-4 15-19 15-42v-35h-333l8-72c3-40 8-74 9-75 1-2 73 11 160 28 86 17 158 30 160 28s6-21 9-41l6-38-167-2-167-3 3-37 4-38h-195l7-46c3-26 6-60 6-75v-29h104c111 0 116-2 116-55 0-13 4-26 9-29 5-4 70 6 145 20s142 24 151 20c9-3 15-18 15-41v-35h-156c-128 0-155-2-151-14 3-7 8-34 12-58 11-73 6-71 159-42 75 15 138 25 141 23 2-2 6-21 10-41l7-38h-728l-55 558c-30 306-54 560-52 565 2 4 101 7 219 7h214v-31zm513-1c3-18 11-95 18-170 11-123 14-138 30-138 11 0 19 3 19 8l23 167 22 160 108 3c59 1 107-1 107-5l-31-190-32-181 26-31c50-59 89-206 102-376 12-162-26-294-95-330-23-12-68-15-207-15h-179l-38 393-56 557c-9 91-15 168-13 173 2 4 46 7 97 7h94l5-32zm-6793-18v-40l-212 1c-117 1-206 3-198 5 35 10 367 72 388 73 19 1 22-4 22-39zm2466 5c3-20 4-38 2-41-3-2-83-3-179-2l-174 3 160 37c88 20 165 37 172 37 7 1 15-15 19-34zm-801-7l-13-33-154-2c-84-1-148 0-142 3 9 4 289 60 316 63 4 1 1-14-7-31zm-1647-176l3-42H919c-117 0-209 3-205 7 8 9 385 82 401 79 6-2 11-21 13-44zm12-141l6-40 7-31-219 1c-121 1-210 4-199 7 48 12 353 70 378 71 15 0 27-3 27-8zm22-200l3-40-200-3c-110-2-203-1-208 3-6 5 341 76 384 78 12 1 18-10 21-38zm16-179l3-42H969c-117 0-209 3-205 7 7 8 386 82 401 79 6-2 11-21 13-44zm3280 0l3-42h-212c-117 0-209 3-206 7 8 7 387 82 402 79 6-2 11-21 13-44zm3292 3v-45h-212c-116 0-208 3-205 7 6 5 368 79 405 82 8 1 12-14 12-44zm-6556-151c3-9 6-27 6-40v-24l-212 1c-117 0-206 3-198 6 22 9 341 70 371 72 16 1 29-5 33-15zm4262-11c3-16 7-34 10-40 3-10-43-13-209-12-117 0-205 3-197 6 17 7 347 71 372 72 11 1 20-9 24-26zm-4244-180c3-21 5-39 4-40-3-4-417-5-421-1s354 75 391 77c18 1 23-6 26-36zm2517 1c12-20 20-38 19-40-3-3-386-7-403-4-5 1 73 19 175 40l187 39s11-15 22-35zm1767 9l9-40c3-9-47-13-198-15-111-2-205-1-209 2-6 5 327 73 379 79 7 0 15-11 19-26zm-2616-20l22-28-159-5c-87-3-165-3-173-1-11 4 233 57 277 60 6 1 21-11 33-26z"/><path d="M2950 3475c0-24 51-504 55-516 8-23 49-39 100-39 55 0 53-26 20 288-28 274-27 272-117 272-32 0-58-2-58-5zM1360 3463c0-21 3-62 6-90l7-53h43c23 0 46 5 50 11 12 20 4 122-11 146-12 18-25 23-55 23-40 0-40 0-40-37zM1406 2978c3-40 10-77 14-81 4-5 23-7 41-5l34 3v61c0 73-14 94-62 94h-34l7-72zM2194 3073c12-140 14-143 51-143 51 0 69 24 61 84-3 28-6 61-6 74 0 34-34 62-76 62h-36l6-77zM5584 3283l35-151c16-74 32-136 35-140 4-3 5 64 4 149l-3 154-38 3c-34 3-38 1-33-15zM7963 3118l13-110 6-78h37c20 0 42 5 49 12 24 24 8 181-20 199-7 5-30 9-52 9-38 0-38 0-33-32z"/></g></svg>