<svg version="1" xmlns="http://www.w3.org/2000/svg" width="897" height="664" viewBox="0 0 8970 6640">
    <path d="M0 3320V0h8970v6640H0V3320z" fill="#7f5152"/>
    <g fill="#fff">
        <path d="M0 3320V0h8970v6640H0V3320zm3140 2385c13-12 23-12 56-3 21 6 77 12 125 12 73 0 93-4 142-28 118-57 149-196 65-291-19-22-69-54-133-86-149-72-179-105-135-149 15-15 33-20 74-20 87 0 113 14 133 71 16 44 21 49 43 47 14-2 24-6 23-10-2-5-3-53-3-108 0-104-6-116-41-84-14 13-24 14-61 3-23-6-75-12-114-12-119-1-191 48-213 142-21 94 26 153 183 230 115 56 139 78 139 123 0 48-41 78-107 78-57 0-111-15-137-37-9-8-22-34-29-59-14-50-21-57-44-48-13 5-16 26-16 125 0 105 2 119 17 119 9 0 24-7 33-15zm1435 0c16-3 33-39 84-180 35-97 65-174 67-172s34 84 72 183l69 179 44-3c24-2 49-9 55-15 7-7 44-113 84-237 75-234 104-299 146-327 18-11 24-23 22-42l-3-26-127-3-128-3v29c0 25 5 30 48 43 37 12 46 19 44 35-4 23-103 378-107 382-3 3-139-419-149-460l-6-28h-210v28c0 22 7 32 31 43 24 10 36 27 50 64l19 50-51 153c-28 83-52 152-55 152-4 0-139-420-148-462l-6-28h-100c-80 0-100 3-100 14 0 8-2 21-5 28-4 9 6 18 27 26 32 12 36 20 142 301l109 290 31-5 51-9zm1077-7c49-14 123-78 147-127 47-94 54-271 14-361-47-107-133-162-255-163-132-2-234 56-278 156-59 135-45 328 31 420 70 84 208 115 341 75zm699-4c60-19 115-73 148-143 24-51 26-67 26-176 0-104-3-127-23-171-45-100-132-154-250-157-91-2-153 18-208 66-75 66-106 148-105 281 1 183 75 290 222 315 64 11 127 7 190-15zm-4146 0c33-8 64-19 68-23 5-5 4-24-1-42-8-33-10-34-53-29-24 3-81 5-126 5-92 0-122-14-158-76-17-29-20-52-20-149 0-107 2-118 27-161 62-105 210-108 260-5 17 35 28 46 45 46 23 0 23-2 23-109 0-108 0-110-22-108-13 0-29 9-36 18-11 17-15 17-49 2-49-20-145-22-208-4-78 23-147 98-176 191-28 92-24 238 8 311 26 58 83 114 137 133 56 20 207 20 281 0zm385-24c0-27-4-30-40-36-45-7-45-9-21-79l18-50h207l22 58 23 58-25 9c-14 6-30 10-35 10s-9 14-9 30v30h290v-29c0-23-6-31-26-38-23-8-39-41-140-297-62-159-115-290-117-292-2-3-28 1-57 8-44 10-55 17-65 43l-106 278-94 247-37 12c-32 9-38 15-38 40v28h250v-30zm1561 28l13-91c12-84 11-89-7-99-22-11-19-14-60 57l-23 40-107 3-107 3v-206l100 3 100 3v-87l-100 4-100 4v-182h185l22 50c21 48 36 59 58 42 6-4 9-44 7-95l-3-87-242 2-242 3-3 26c-3 22 2 27 30 35l33 10 3 246 2 246-35 6c-37 7-51 25-41 51 5 13 43 15 261 15 140 0 255-1 256-2zm2868-14c64-19 124-71 159-138 22-43 27-68 30-151 5-129-16-192-87-258-72-67-115-77-338-77h-183v29c0 23 6 30 33 37l32 10v487l-32 11c-41 14-46 20-38 45 6 20 13 21 189 21 136 0 196-4 235-16zM4932 4315a2638 2638 0 0 0-225-920c-183-453-254-843-218-1198 21-199 60-338 153-539 56-122 60-161 16-166-105-12-288 233-377 508-58 179-86 345-97 570-8 157 1 238 56 540 88 488 92 771 15 1088-14 57-25 107-25 113 0 9 692 14 702 4zm-737-689c35-23 48-84 42-186-8-111-28-187-77-285a697 697 0 0 0-323-327c-90-46-176-68-293-75-105-7-156 6-182 45-23 36-22 211 2 302a741 741 0 0 0 595 540c80 13 207 5 236-14zm930-420a732 732 0 0 0 481-510c22-83 29-221 15-274-18-64-42-75-164-74-113 0-170 11-267 49a735 735 0 0 0-400 392c-58 135-75 346-35 408 25 37 51 43 175 39 88-3 133-10 195-30zm-1133-525c32-26 74-114 94-198 41-175-29-389-165-502-157-130-221-118-287 55-88 230 0 489 210 626 67 43 110 49 148 19zm-494-94c34-35 34-84-1-160a388 388 0 0 0-249-213c-149-39-271 9-252 101 19 93 97 203 181 252 71 41 121 53 211 50 75-3 86-6 110-30zm1361-192a529 529 0 0 0 276-336c33-122 9-309-44-350-36-29-105-20-200 27a521 521 0 0 0-277 364c-27 127-1 277 54 321 36 28 93 20 191-26zm-670-559c19-10 37-35 56-78 73-162 28-352-108-459-81-64-130-50-180 50-29 60-32 74-32 161 0 82 4 103 27 152 36 78 71 122 126 158 51 34 71 36 111 16zm666-387c77-29 156-104 197-187 28-56 34-80 37-150 3-90-8-133-43-157-74-52-262 55-329 187-56 111-59 247-7 300 35 34 68 36 145 7z"/>
        <path d="M5460 5594c-17-15-38-43-47-63-20-47-23-218-4-283 38-131 184-155 248-41 67 119 40 345-47 396-44 26-112 22-150-9zM6163 5600c-43-26-61-64-73-153-26-182 35-312 145-312 56 0 93 27 125 90 21 43 24 63 25 155 0 91-3 112-24 153-13 28-37 57-55 68-40 24-102 24-143-1zM2609 5315c20-63 38-115 41-115s21 46 39 103l38 115c4 9-15 12-75 12h-80l37-115zM6843 5613l-23-4v-461l68 4c123 7 176 71 177 218 0 138-42 214-133 240-38 10-50 11-89 3z"/>
    </g>
</svg>