<?xml version="1.0" encoding="utf-8"?>
<!-- Generator: Adobe Illustrator 20.1.0, SVG Export Plug-In . SVG Version: 6.00 Build 0)  -->
<svg version="1.1" id="_x2014_ÎÓÈ_1" xmlns="http://www.w3.org/2000/svg" xmlns:xlink="http://www.w3.org/1999/xlink" x="0px"
	 y="0px" viewBox="0 0 1360 1000" style="enable-background:new 0 0 1360 1000;" xml:space="preserve">
<style type="text/css">
	.st0{stroke:#000000;stroke-miterlimit:10;}
	.st1{fill-rule:evenodd;clip-rule:evenodd;fill:#FFFFFF;}
	.st2{fill-rule:evenodd;clip-rule:evenodd;fill:#D3E189;}
	.st3{fill-rule:evenodd;clip-rule:evenodd;fill:#E6A5AA;}
	.st4{fill-rule:evenodd;clip-rule:evenodd;fill:#A1D5F8;}
</style>
<g>
	<path class="st0" d="M445.4,885.5c-0.1-12.4,5.6-24.2,17-35.6c11.9-11.9,23.6-17.8,35.2-17.7c6.7,0.1,12,2.2,15.9,6.2
		c4.6,4.6,6.9,9.9,6.8,15.8c0,9.5-3.3,19-10,28.7c-6,8.9-13.6,15.5-22.6,20.2c-6,3.1-12.2,4.6-18.5,4.5c-6.5,0-12.1-2.1-16.8-6.1
		C447.5,897.4,445.3,892.1,445.4,885.5L445.4,885.5z M461.1,890.8c0,2,0.4,3.9,1.2,5.7l1.6,2.5l2.3,1.5c0.9,0.5,2,0.7,3.2,0.6
		c12.4,0.1,22.9-11.9,31.6-36c2.2-6.2,3.4-11.6,3.4-16.1c0-6.4-3.4-9.8-10.1-10.3c-7.8,0-15.6,7.1-23.6,21.2
		C464.3,871.2,461.1,881.5,461.1,890.8L461.1,890.8z M563.7,862.7l10.9-15.1c7.5-10.1,14.3-15.2,20.7-15.4c3.9,0.1,7.1,1.5,9.8,4.2
		c2.7,2.7,4,5.9,3.9,9.5c-0.1,4.2-0.9,8.5-2.5,13l-4.7,12.2l-7.6,19.2l-0.8,3.2c0,2.6,1.2,3.9,3.6,3.9c1.4,0,3.1-0.7,5.1-2.1
		l7.4-5.9l10.2-9.3l2.6,1.8l0.2,0.8c0.1,2.3-4.7,7.4-14.1,15.1c-8.3,6.6-14.2,9.9-17.9,9.8c-7.7-0.1-11.5-3.4-11.3-10
		c0-3.6,1-8.2,3-13.7l4.7-13.3l4.7-13.3l3.2-8.9c0.6-1.7,0.9-3.3,1-4.8c0-2.7-1.4-4.3-4.2-4.8c-2.9,0.1-6,2.3-9.4,6.5l-7.4,10
		l-12.4,18c-3.7,5.4-7.1,11.4-10.3,18c-2.3,4.8-4.4,8.7-6.4,11.5c-0.7,1.2-1.5,2-2.4,2.3l-2.9,0.5H533l-1.1-1.1l17.3-63.5l0.8-2.7
		c0.4-0.9,0.9-1.6,1.5-2.1l13.6-3.8l1.5,1.6L554,876.4L563.7,862.7L563.7,862.7z M661.3,833l3.1-0.8c1.5,0.4,2.3,1.3,2.3,2.9
		l-0.5,2.3l-17,52.4l-0.5,3.4c0.3,3,1.4,4.4,3.3,4.2l1.2-0.2c1.1-0.5,2.3-1.3,3.7-2.4l7.2-7l10.3-11.1l1.8,0.9l1.1,1.6
		c0,0.6-0.4,1.3-1.1,2.1c-3,3.7-6.2,7.2-9.7,10.8c-4.1,4.3-7.9,7.9-11.5,10.6c-4,3.3-8,4.9-12.1,4.8c-12.8,0-11.4-13.1-8.9-21.7
		l4.3-14.5l9.6-30.9c0.4-1.4,1-2.6,2-3.4c0.9-0.8,2.1-1.5,3.6-2L661.3,833L661.3,833z M672.2,787.5c7.1,0.3,10.9,4.2,11.2,11.6
		c-0.3,7.3-4.1,11.1-11.3,11.3c-7.5-0.3-11.4-4.1-11.6-11.3C660.9,791.7,664.7,787.9,672.2,787.5L672.2,787.5z M697.6,868l-3.3,3.2
		c-0.9,1-1.7,1.5-2.3,1.5l-1.8-0.9c-0.5-0.4-0.7-1-0.6-1.8l0.6-1.8l27.3-29.9l1.7-3.3l2.2-5.6c2.6-7.3,6.9-10.9,12.7-11
		c4.2,0.2,6.2,2.2,6.1,6l-0.5,2.6c-0.7,1.4-1.7,2.7-2.9,3.8l-3.5,3.3l-4.9,5l3.2,5.9l3.2,6.5c1.5,3.6,2.8,7.5,3.8,11.5
		c1,4.1,1.5,7.9,1.5,11.4c0,3.8-0.7,7.6-2.1,11.4c-4.8,14.5-16.2,21.8-33.9,21.8c-5.4,0.1-9.9-0.8-13.7-2.7
		c-5.7-2.9-8.5-6.3-8.4-10.2l0.3-1.8c1.4-2.7,3.8-4.1,7.1-4.1c4.2,0,8.1,1.9,11.6,5.7l4.4,4.3c1.7,1.7,3.9,2.5,6.5,2.4
		c6.9-0.3,11-5.5,12.2-15.7l0.3-6.8c0-5.3-0.4-10.7-1.4-16l-2.5-11.2l-1.6-5.9h0.1L697.6,868L697.6,868z M787.1,861.4
		c15.2-19.4,26.4-29.1,33.7-29.1c9-0.1,13.7,5.7,14.1,17.5c-0.4,5-1.3,9.9-2.8,14.6l-5.3,12.8l-9.1,19.7l0.3,2.1
		c0.7,1.7,2.2,2.5,4.5,2.3c4.3,0.1,11.1-4.5,20.3-13.7l4.7-4.6l1.6-1.1c1.2,0,1.9,0.7,2,2.1c0,1.1-0.5,2.2-1.5,3.3l-7,7.2
		c-9.2,8.9-17.9,13.3-25.9,13.3c-8.2-0.2-12.4-4.4-12.6-12.5c0-4.4,1.7-10.8,5-19l8.3-20.1l3.4-7.4c0.7-1.8,1.1-3.6,1.2-5.3
		c-0.1-3-1.5-4.6-4.4-4.7c-1.6-0.1-3.2,0.5-4.8,1.6l-4.6,3.6c-3.6,3.3-7.4,7.6-11.5,12.9c-6.4,8-11.1,14.5-14.2,19.5
		c-3.3,5.5-6.4,11.1-9.1,17c-1.7,3.7-3.2,6.7-4.7,9.1c-0.8,1.4-1.7,2.3-2.6,2.6c-0.8,0.4-2.2,0.6-4.1,0.5h-6.8c-1.5,0-2.2-0.7-2.1-2
		l0.9-3.9l53.7-191.5l1.2-3.7c0.5-1.2,1.4-2.4,2.6-3.4l3.2-2l10.3-3.8c1.8-0.7,3.2-1.1,4.2-1.1l1.5,1.8l-53.7,178.9L787.1,861.4
		L787.1,861.4z M888.7,862.1c4.9-6.6,9.9-12.5,15-17.6c7.7-7.8,16.1-11.9,25.2-12.2c9.4,0.2,14,5,14,14.3
		c0.1,11.7-8.9,22.1-26.8,31.2l-7.2,3.5l3.1,3.1c2.9,2.8,6.1,5.4,9.7,7.8l7.1,5l1.3,1.5l-1.7,2.7l-4.2,4.4c-1.3,1.1-2.5,1.7-3.5,1.8
		c-2.4,0-6.7-3.1-13.1-9.2l-10.6-10.2c-1-1-1.5-2-1.5-2.8c0-0.6,0.4-1.3,1.1-2l1.8-1.2c3.5-1.9,7.3-4.6,11.4-8
		c3.7-2.9,6.7-5.9,9.2-8.9c5.2-6,7.9-11.7,8-17.2c0.1-3.8-1.6-5.7-5.3-5.6c-5.5,0-13.6,5.8-24.4,17.5c-6.8,7.3-12.7,15.4-17.8,24.6
		c-2.8,5.1-4.9,9.4-6.1,12.9l-1.5,4.4c-0.6,1.8-1.3,2.8-2,3.2c-0.5,0.4-1.6,0.6-3.2,0.5h-6.6l-3.1-0.3l-0.9-1.2l55.5-196.7l0.9-3
		c0.5-1.4,1.2-2.5,2.3-3.1l2.4-1.2l13.6-5.7l1.2,2l-53.1,179.4L888.7,862.1L888.7,862.1z M986.1,833l3.1-0.8
		c1.5,0.4,2.3,1.3,2.3,2.9l-0.5,2.3l-17,52.4l-0.5,3.4c0.3,3,1.4,4.4,3.3,4.2l1.2-0.2c1.1-0.5,2.3-1.3,3.7-2.4l7.2-7l10.3-11.1
		l1.8,0.9l1.1,1.6c0,0.6-0.4,1.3-1.1,2.1c-3,3.7-6.2,7.2-9.7,10.8c-4.1,4.3-7.9,7.9-11.5,10.6c-4,3.3-8,4.9-12.1,4.8
		c-12.8,0-11.4-13.1-8.9-21.7l4.3-14.5l9.6-30.9c0.4-1.4,1-2.6,2-3.4c0.9-0.8,2.1-1.5,3.6-2L986.1,833L986.1,833z M996.9,787.5
		c7.1,0.3,10.9,4.2,11.2,11.6c-0.3,7.3-4.1,11.1-11.3,11.3c-7.5-0.3-11.4-4.1-11.6-11.3C985.6,791.7,989.5,787.9,996.9,787.5
		L996.9,787.5z M1031.9,882.6c7.8,0.6,12,4.8,12.6,12.7c-0.6,7.8-4.9,12-12.7,12.7c-7.8-0.6-12-4.8-12.6-12.7
		C1019.8,887.5,1024,883.2,1031.9,882.6L1031.9,882.6z M1098.5,866.9l8.5-14.5c7.8-13.3,14.7-20,20.7-20.1c5.7,0.3,8.5,5.7,8.3,16.1
		l-0.3,6.8c-0.2,2.3-0.6,4-1,5.1l-4.4,4.1l-7.1,4.4c-1.3,0.9-2.3,1.3-2.9,1.2l-1.2-1.3l1.2-4l2.1-6c0.8-2.3,1.3-4.4,1.4-6.1l0-1.8
		l-0.9-2.6l-1.3-0.5l-1.5,0.5c-4.3,3.3-10.4,11.8-18.1,25.5c-5.3,9.2-9,16.6-11.2,22.2l-3.1,7.3l-0.8,1.3c-0.6,0.7-1.2,1-1.8,0.9
		h-2.7l-8.3-0.3l-1.2-1.6l9.3-32.7l4.1-18.3l1.7-9.2c0.1-1.8,0.4-3.1,0.9-3.8c0.3-0.7,1-1.3,2.3-1.9l3.3-1.3l11-4.1l1.3,1.3
		l-13.4,41.5L1098.5,866.9L1098.5,866.9z M1197.6,867l-6.4,10.2c-12.5,20.4-23.2,30.6-32.3,30.4c-3.8,0.1-6.8-1.2-8.9-3.9
		c-2.1-2.7-3.1-5.7-3-8.9c-0.1-4,0.7-9.3,2.5-15.8l4.7-18.8l5.9-19.2l1.5-4.1c0.5-0.9,1.7-1.6,3.7-2.1l7.1-2.1l2.4-0.5
		c0.5,0,1,0.2,1.4,0.6l0.1,2.8l-7.1,22.1l-9,29.4c-1.2,3.7-1.8,6.9-1.7,9.5c0,2.4,1.4,3.9,4.2,4.4l2.4-0.5c2-0.9,4.2-2.7,6.5-5.3
		l7.7-9.4c3.4-4.6,6.9-9.9,10.6-15.8l12.2-21.6l6.8-12.4l1.8-1.3l9.4-0.5l2.6,0.5l1,0.9l-0.2,3.8l-14.9,47.9l-0.6,4.2
		c0,4,1.5,5.9,4.4,5.8c1.3-0.1,2.8-0.7,4.5-1.9l7.3-5.9l5.7-5c1.1-1,2.1-1.6,2.9-1.7l2.1,2.1c-0.1,0.8-0.7,1.8-1.7,2.9l-5.9,5.8
		l-7.7,6.8c-6,4.8-11,7.2-15,7.1c-6.8,0.1-10.3-4.1-10.4-12.5c-0.1-3.2,0.5-7.3,1.8-12.3l3.5-13l3.7-11.9L1197.6,867z"/>
	<path class="st0" d="M447.9,788.5c8.6,34.1-0.2,62.5-26.3,85.1c-25.5,22-61,33.1-106.4,33.1c-17.1,0-40.6-2.8-70.7-8.5
		c-30.1-5.7-57.1-8.5-81-8.5c-14,0-25.6,4.6-34.8,13.8c-1.2,0.6-2.3,0.4-3.3-0.6c-1-1-1.4-2.2-1.2-3.7c2.5-4.4,7.9-9.1,16-14.1
		c11.6-7.1,24.6-10.6,39-10.6c17.2,0,45,3.6,83.4,10.9c38.3,7.3,65.2,10.9,80.5,10.9c26.8,0,49.1-9.1,66.7-27.3
		c19.6-20.5,25.6-45.9,17.9-76.3c-5.4-21.6-19.5-40.1-42.1-55.4c-3.7,6.7-9,21.6-15.8,44.6c-7.4,25.3-13.6,43.2-18.4,53.8
		c16-6.5,32.8-17,50.5-31.3c2.8-1,4.6-0.2,5.2,2.3c0.1,0.6,0.1,1.2-0.1,2c-14.3,15.5-34.8,28.6-61.5,39.1
		c-2.9,6.7-7.5,13.8-13.6,21.3c-6.8,8.6-13.1,14.2-18.8,16.7c-2.3,1-3.6,0.5-4.1-1.4c-0.3-1.1,0.2-2.2,1.5-3.2
		c7.9-5.4,14.1-14.5,18.7-27.3c-24,7.5-48.9,11.2-74.8,11.2c-33.9,0-63.3-7.1-88.1-21.3c-25.7-14.6-41.6-33.9-47.6-57.9
		c-6-24,5.8-45.9,35.5-65.9c29.1-19.8,63.5-29.7,102.9-29.7c50.8,0,94.3,9.7,130.6,29c9.2-7.7,17.1-12,23.8-12.9
		c0.8,0.2,1.3,0.8,1.6,1.7c0,1-0.2,1.7-0.9,2.3c-5,2.9-10.5,7.4-16.4,13.5C423.9,740.7,441.3,762.3,447.9,788.5L447.9,788.5z
		 M375.6,730.8c-33.9-19.6-75.3-29.4-124.4-29.4c-39.9,0-72.3,9.2-97.4,27.6c-23.4,17.3-32.7,35.9-27.6,55.9
		c5,19.8,20.2,35.6,45.6,47.5c24.7,11.5,54.4,17.3,88.9,17.3c28.9,0,53-2.6,72.2-7.8c5.5-19.4,11-38.9,16.6-58.5
		C356.6,761.6,365.4,744.1,375.6,730.8L375.6,730.8z M468.5,875.7c-0.4-3.8-0.4-7.6,0-11.3V875.7z"/>
</g>
<g>
	<g>
		<circle class="st1" cx="965.1" cy="594.3" r="10"/>
		<circle class="st1" cx="1192.3" cy="367.1" r="10"/>
		<circle class="st1" cx="965.1" cy="139.8" r="10"/>
		<circle class="st1" cx="932.7" cy="142.1" r="10"/>
		<circle class="st1" cx="901" cy="148.9" r="10"/>
		<circle class="st1" cx="870.6" cy="160.3" r="10"/>
		<circle class="st1" cx="842.2" cy="175.8" r="10"/>
		<circle class="st1" cx="816.2" cy="195.3" r="10"/>
		<circle class="st1" cx="901" cy="585.2" r="10"/>
		<circle class="st1" cx="932.7" cy="592" r="10"/>
		<circle class="st1" cx="997.4" cy="592" r="10"/>
		<circle class="st1" cx="1029.1" cy="585.2" r="10"/>
		<circle class="st1" cx="1059.5" cy="573.8" r="10"/>
		<circle class="st1" cx="1087.9" cy="558.3" r="10"/>
		<circle class="st1" cx="1113.9" cy="538.8" r="10"/>
		<circle class="st1" cx="1136.8" cy="515.9" r="10"/>
		<circle class="st1" cx="1156.3" cy="489.9" r="10"/>
		<circle class="st1" cx="1171.8" cy="461.5" r="10"/>
		<circle class="st1" cx="1183.2" cy="431.1" r="10"/>
		<circle class="st1" cx="1190" cy="399.4" r="10"/>
		<circle class="st1" cx="1190" cy="334.7" r="10"/>
		<circle class="st1" cx="1183.2" cy="303" r="10"/>
		<circle class="st1" cx="1171.8" cy="272.6" r="10"/>
		<circle class="st1" cx="1156.3" cy="244.2" r="10"/>
		<circle class="st1" cx="1136.8" cy="218.2" r="10"/>
		<circle class="st1" cx="1113.9" cy="195.3" r="10"/>
		<circle class="st1" cx="1087.9" cy="175.8" r="10"/>
		<circle class="st1" cx="1059.5" cy="160.3" r="10"/>
		<circle class="st1" cx="1029.1" cy="148.9" r="10"/>
		<circle class="st1" cx="997.4" cy="142.1" r="10"/>
	</g>
	<g>
		<circle class="st1" cx="384.8" cy="581.5" r="8.6"/>
		<circle class="st1" cx="384.9" cy="181.7" r="8.6"/>
		<circle class="st1" cx="408.4" cy="164.8" r="8.6"/>
		<circle class="st1" cx="434.3" cy="151.8" r="8.6"/>
		<circle class="st1" cx="462.4" cy="144.9" r="8.6"/>
		<circle class="st1" cx="491.3" cy="145" r="8.6"/>
		<circle class="st1" cx="519.4" cy="151.9" r="8.6"/>
		<circle class="st1" cx="545.3" cy="164.9" r="8.6"/>
		<circle class="st1" cx="567.7" cy="183.2" r="8.6"/>
		<circle class="st1" cx="466.1" cy="498.6" r="8.6"/>
		<circle class="st1" cx="445.8" cy="519.4" r="8.6"/>
		<circle class="st1" cx="425.5" cy="540.1" r="8.6"/>
		<circle class="st1" cx="405.2" cy="560.8" r="8.6"/>
		<circle class="st1" cx="361.2" cy="164.8" r="8.6"/>
		<circle class="st1" cx="335.3" cy="151.8" r="8.6"/>
		<circle class="st1" cx="307.2" cy="144.9" r="8.6"/>
		<circle class="st1" cx="278.2" cy="145" r="8.6"/>
		<circle class="st1" cx="250.1" cy="151.9" r="8.6"/>
		<circle class="st1" cx="224.3" cy="164.9" r="8.6"/>
		<circle class="st1" cx="201.8" cy="183.2" r="8.6"/>
		<circle class="st1" cx="183.6" cy="205.7" r="8.6"/>
		<circle class="st1" cx="170.3" cy="231.4" r="8.6"/>
		<circle class="st1" cx="162.6" cy="259.3" r="8.6"/>
		<circle class="st1" cx="160.7" cy="288.2" r="8.6"/>
		<circle class="st1" cx="164.4" cy="316.9" r="8.6"/>
		<circle class="st1" cx="173.3" cy="344.5" r="8.6"/>
		<circle class="st1" cx="186.5" cy="370.3" r="8.6"/>
		<circle class="st1" cx="203" cy="394.1" r="8.6"/>
		<circle class="st1" cx="222.2" cy="415.8" r="8.6"/>
		<circle class="st1" cx="242.5" cy="436.5" r="8.6"/>
		<circle class="st1" cx="262.8" cy="457.2" r="8.6"/>
		<circle class="st1" cx="283.2" cy="477.9" r="8.6"/>
		<circle class="st1" cx="303.5" cy="498.6" r="8.6"/>
		<circle class="st1" cx="323.8" cy="519.4" r="8.6"/>
		<circle class="st1" cx="344.1" cy="540.1" r="8.6"/>
		<circle class="st1" cx="364.4" cy="560.8" r="8.6"/>
	</g>
	<g>
		<circle class="st1" cx="650.4" cy="579.7" r="10.2"/>
		<circle class="st1" cx="617.4" cy="589.6" r="10.2"/>
		<circle class="st1" cx="584.4" cy="599.5" r="10.2"/>
		<circle class="st1" cx="551.3" cy="609.2" r="10.2"/>
		<circle class="st1" cx="517.7" cy="616.2" r="10.2"/>
		<circle class="st1" cx="513.9" cy="582" r="10.2"/>
		<circle class="st1" cx="512.9" cy="547.6" r="10.2"/>
		<circle class="st1" cx="512.2" cy="513.1" r="10.2"/>
		<circle class="st1" cx="511.3" cy="478.7" r="10.2"/>
		<circle class="st1" cx="509.9" cy="444.3" r="10.2"/>
		<circle class="st1" cx="490.8" cy="415.6" r="10.2"/>
		<circle class="st1" cx="471.3" cy="387.3" r="10.2"/>
		<circle class="st1" cx="451.6" cy="359" r="10.2"/>
		<circle class="st1" cx="432.2" cy="330.6" r="10.2"/>
		<circle class="st1" cx="415.2" cy="300.7" r="10.2"/>
		<circle class="st1" cx="446.5" cy="286.6" r="10.2"/>
		<circle class="st1" cx="478.9" cy="275" r="10.2"/>
		<circle class="st1" cx="511.5" cy="263.6" r="10.2"/>
		<circle class="st1" cx="543.9" cy="252.2" r="10.2"/>
		<circle class="st1" cx="576.2" cy="240.2" r="10.2"/>
		<circle class="st1" cx="597.6" cy="213.2" r="10.2"/>
		<circle class="st1" cx="618.5" cy="185.8" r="10.2"/>
		<circle class="st1" cx="639.3" cy="158.4" r="10.2"/>
		<circle class="st1" cx="660.4" cy="131.2" r="10.2"/>
		<circle class="st1" cx="683.5" cy="105.7" r="10.2"/>
		<circle class="st1" cx="714.4" cy="579.7" r="10.2"/>
		<circle class="st1" cx="747.4" cy="589.6" r="10.2"/>
		<circle class="st1" cx="780.4" cy="599.5" r="10.2"/>
		<circle class="st1" cx="813.4" cy="609.2" r="10.2"/>
		<circle class="st1" cx="847.1" cy="616.2" r="10.2"/>
		<circle class="st1" cx="850.8" cy="582" r="10.2"/>
		<circle class="st1" cx="851.9" cy="547.6" r="10.2"/>
		<circle class="st1" cx="852.6" cy="513.1" r="10.2"/>
		<circle class="st1" cx="853.5" cy="478.7" r="10.2"/>
		<circle class="st1" cx="854.8" cy="444.3" r="10.2"/>
		<circle class="st1" cx="873.9" cy="415.6" r="10.2"/>
		<circle class="st1" cx="893.5" cy="387.3" r="10.2"/>
		<circle class="st1" cx="913.1" cy="359" r="10.2"/>
		<circle class="st1" cx="932.5" cy="330.6" r="10.2"/>
		<circle class="st1" cx="949.6" cy="300.7" r="10.2"/>
		<circle class="st1" cx="918.2" cy="286.6" r="10.2"/>
		<circle class="st1" cx="885.8" cy="275" r="10.2"/>
		<circle class="st1" cx="853.3" cy="263.6" r="10.2"/>
		<circle class="st1" cx="820.8" cy="252.2" r="10.2"/>
		<circle class="st1" cx="788.5" cy="240.2" r="10.2"/>
		<circle class="st1" cx="767.2" cy="213.2" r="10.2"/>
		<circle class="st1" cx="746.3" cy="185.8" r="10.2"/>
		<circle class="st1" cx="725.4" cy="158.4" r="10.2"/>
		<circle class="st1" cx="704.4" cy="131.2" r="10.2"/>
		<circle class="st1" cx="683.5" cy="572.1" r="10.2"/>
	</g>
	<g>
		<circle class="st2" cx="965.1" cy="367.1" r="249.4"/>
		<g>
			<circle class="st1" cx="965.1" cy="594.3" r="10"/>
			<circle class="st1" cx="1192.3" cy="367.1" r="10"/>
			<circle class="st1" cx="965.1" cy="139.8" r="10"/>
			<circle class="st1" cx="932.7" cy="142.1" r="10"/>
			<circle class="st1" cx="901" cy="148.9" r="10"/>
			<circle class="st1" cx="870.6" cy="160.3" r="10"/>
			<circle class="st1" cx="842.2" cy="175.8" r="10"/>
			<circle class="st1" cx="816.2" cy="195.3" r="10"/>
			<circle class="st1" cx="901" cy="585.2" r="10"/>
			<circle class="st1" cx="932.7" cy="592" r="10"/>
			<circle class="st1" cx="997.4" cy="592" r="10"/>
			<circle class="st1" cx="1029.1" cy="585.2" r="10"/>
			<circle class="st1" cx="1059.5" cy="573.8" r="10"/>
			<circle class="st1" cx="1087.9" cy="558.3" r="10"/>
			<circle class="st1" cx="1113.9" cy="538.8" r="10"/>
			<circle class="st1" cx="1136.8" cy="515.9" r="10"/>
			<circle class="st1" cx="1156.3" cy="489.9" r="10"/>
			<circle class="st1" cx="1171.8" cy="461.5" r="10"/>
			<circle class="st1" cx="1183.2" cy="431.1" r="10"/>
			<circle class="st1" cx="1190" cy="399.4" r="10"/>
			<circle class="st1" cx="1190" cy="334.7" r="10"/>
			<circle class="st1" cx="1183.2" cy="303" r="10"/>
			<circle class="st1" cx="1171.8" cy="272.6" r="10"/>
			<circle class="st1" cx="1156.3" cy="244.2" r="10"/>
			<circle class="st1" cx="1136.8" cy="218.2" r="10"/>
			<circle class="st1" cx="1113.9" cy="195.3" r="10"/>
			<circle class="st1" cx="1087.9" cy="175.8" r="10"/>
			<circle class="st1" cx="1059.5" cy="160.3" r="10"/>
			<circle class="st1" cx="1029.1" cy="148.9" r="10"/>
			<circle class="st1" cx="997.4" cy="142.1" r="10"/>
		</g>
	</g>
	<g>
		<path class="st3" d="M384.9,151.2c21.4-15.9,45.9-26.7,72.5-30.4c24.8-3.4,50-0.1,73.3,9c50.2,19.7,87.3,64.6,99,117
			c6.5,29.2,4.8,59.2-3.8,87.8c-10.5,35-30.8,66.2-55.5,92.8l0,0l-185.4,189l-185.4-189c-24.7-26.6-45-57.8-55.5-92.8
			c-8.6-28.6-10.3-58.6-3.8-87.8c11.7-52.4,48.8-97.3,99-117c23.2-9.1,48.5-12.4,73.3-9C339,124.5,363.4,135.4,384.9,151.2z"/>
		<g>
			<circle class="st1" cx="384.8" cy="581.5" r="8.6"/>
			<circle class="st1" cx="384.9" cy="181.7" r="8.6"/>
			<circle class="st1" cx="408.4" cy="164.8" r="8.6"/>
			<circle class="st1" cx="434.3" cy="151.8" r="8.6"/>
			<circle class="st1" cx="462.4" cy="144.9" r="8.6"/>
			<circle class="st1" cx="491.3" cy="145" r="8.6"/>
			<circle class="st1" cx="519.4" cy="151.9" r="8.6"/>
			<circle class="st1" cx="545.3" cy="164.9" r="8.6"/>
			<circle class="st1" cx="567.7" cy="183.2" r="8.6"/>
			<circle class="st1" cx="466.1" cy="498.6" r="8.6"/>
			<circle class="st1" cx="445.8" cy="519.4" r="8.6"/>
			<circle class="st1" cx="425.5" cy="540.1" r="8.6"/>
			<circle class="st1" cx="405.2" cy="560.8" r="8.6"/>
			<circle class="st1" cx="361.2" cy="164.8" r="8.6"/>
			<circle class="st1" cx="335.3" cy="151.8" r="8.6"/>
			<circle class="st1" cx="307.2" cy="144.9" r="8.6"/>
			<circle class="st1" cx="278.2" cy="145" r="8.6"/>
			<circle class="st1" cx="250.1" cy="151.9" r="8.6"/>
			<circle class="st1" cx="224.3" cy="164.9" r="8.6"/>
			<circle class="st1" cx="201.8" cy="183.2" r="8.6"/>
			<circle class="st1" cx="183.6" cy="205.7" r="8.6"/>
			<circle class="st1" cx="170.3" cy="231.4" r="8.6"/>
			<circle class="st1" cx="162.6" cy="259.3" r="8.6"/>
			<circle class="st1" cx="160.7" cy="288.2" r="8.6"/>
			<circle class="st1" cx="164.4" cy="316.9" r="8.6"/>
			<circle class="st1" cx="173.3" cy="344.5" r="8.6"/>
			<circle class="st1" cx="186.5" cy="370.3" r="8.6"/>
			<circle class="st1" cx="203" cy="394.1" r="8.6"/>
			<circle class="st1" cx="222.2" cy="415.8" r="8.6"/>
			<circle class="st1" cx="242.5" cy="436.5" r="8.6"/>
			<circle class="st1" cx="262.8" cy="457.2" r="8.6"/>
			<circle class="st1" cx="283.2" cy="477.9" r="8.6"/>
			<circle class="st1" cx="303.5" cy="498.6" r="8.6"/>
			<circle class="st1" cx="323.8" cy="519.4" r="8.6"/>
			<circle class="st1" cx="344.1" cy="540.1" r="8.6"/>
			<circle class="st1" cx="364.4" cy="560.8" r="8.6"/>
		</g>
	</g>
	<g>
		<path class="st4" d="M808.5,215.8c224,84.2,209,37.9,77.3,237.8c-10.9,239.1,28.5,210.5-202.3,146.9
			c-230.8,63.5-191.4,92.2-202.3-146.9c-131.7-199.8-146.8-153.5,77.3-237.8C707.9,28.8,659.2,28.8,808.5,215.8z"/>
		<g>
			<circle class="st1" cx="650.4" cy="579.7" r="10.2"/>
			<circle class="st1" cx="617.4" cy="589.6" r="10.2"/>
			<circle class="st1" cx="584.4" cy="599.5" r="10.2"/>
			<circle class="st1" cx="551.3" cy="609.2" r="10.2"/>
			<circle class="st1" cx="517.7" cy="616.2" r="10.2"/>
			<circle class="st1" cx="513.9" cy="582" r="10.2"/>
			<circle class="st1" cx="512.9" cy="547.6" r="10.2"/>
			<circle class="st1" cx="512.2" cy="513.1" r="10.2"/>
			<circle class="st1" cx="511.3" cy="478.7" r="10.2"/>
			<circle class="st1" cx="509.9" cy="444.3" r="10.2"/>
			<circle class="st1" cx="490.8" cy="415.6" r="10.2"/>
			<circle class="st1" cx="471.3" cy="387.3" r="10.2"/>
			<circle class="st1" cx="451.6" cy="359" r="10.2"/>
			<circle class="st1" cx="432.2" cy="330.6" r="10.2"/>
			<circle class="st1" cx="415.2" cy="300.7" r="10.2"/>
			<circle class="st1" cx="446.5" cy="286.6" r="10.2"/>
			<circle class="st1" cx="478.9" cy="275" r="10.2"/>
			<circle class="st1" cx="511.5" cy="263.6" r="10.2"/>
			<circle class="st1" cx="543.9" cy="252.2" r="10.2"/>
			<circle class="st1" cx="576.2" cy="240.2" r="10.2"/>
			<circle class="st1" cx="597.6" cy="213.2" r="10.2"/>
			<circle class="st1" cx="618.5" cy="185.8" r="10.2"/>
			<circle class="st1" cx="639.3" cy="158.4" r="10.2"/>
			<circle class="st1" cx="660.4" cy="131.2" r="10.2"/>
			<circle class="st1" cx="683.5" cy="105.7" r="10.2"/>
			<circle class="st1" cx="714.4" cy="579.7" r="10.2"/>
			<circle class="st1" cx="747.4" cy="589.6" r="10.2"/>
			<circle class="st1" cx="780.4" cy="599.5" r="10.2"/>
			<circle class="st1" cx="813.4" cy="609.2" r="10.2"/>
			<circle class="st1" cx="847.1" cy="616.2" r="10.2"/>
			<circle class="st1" cx="850.8" cy="582" r="10.2"/>
			<circle class="st1" cx="851.9" cy="547.6" r="10.2"/>
			<circle class="st1" cx="852.6" cy="513.1" r="10.2"/>
			<circle class="st1" cx="853.5" cy="478.7" r="10.2"/>
			<circle class="st1" cx="854.8" cy="444.3" r="10.2"/>
			<circle class="st1" cx="873.9" cy="415.6" r="10.2"/>
			<circle class="st1" cx="893.5" cy="387.3" r="10.2"/>
			<circle class="st1" cx="913.1" cy="359" r="10.2"/>
			<circle class="st1" cx="932.5" cy="330.6" r="10.2"/>
			<circle class="st1" cx="949.6" cy="300.7" r="10.2"/>
			<circle class="st1" cx="918.2" cy="286.6" r="10.2"/>
			<circle class="st1" cx="885.8" cy="275" r="10.2"/>
			<circle class="st1" cx="853.3" cy="263.6" r="10.2"/>
			<circle class="st1" cx="820.8" cy="252.2" r="10.2"/>
			<circle class="st1" cx="788.5" cy="240.2" r="10.2"/>
			<circle class="st1" cx="767.2" cy="213.2" r="10.2"/>
			<circle class="st1" cx="746.3" cy="185.8" r="10.2"/>
			<circle class="st1" cx="725.4" cy="158.4" r="10.2"/>
			<circle class="st1" cx="704.4" cy="131.2" r="10.2"/>
			<circle class="st1" cx="683.5" cy="572.1" r="10.2"/>
		</g>
	</g>
</g>
</svg>
