<?xml version="1.0" encoding="utf-8"?>
<!-- Generator: Adobe Illustrator 20.1.0, SVG Export Plug-In . SVG Version: 6.00 Build 0)  -->
<svg version="1.1" id="logo_x5F_black_xA0_Image_1_"
	 xmlns="http://www.w3.org/2000/svg" xmlns:xlink="http://www.w3.org/1999/xlink" x="0px" y="0px" viewBox="0 0 479.9 479.9"
	 style="enable-background:new 0 0 479.9 479.9;" xml:space="preserve">
<style type="text/css">
	.st0{fill:#FFFFFF;}
	.st1{font-family:'LucidaGrande';}
	.st2{font-size:53.9484px;}
</style>
<g>
	<g>
		<path class="st0" d="M-109.4,564.9c0-231.4,0-462.9,0-694.3c231.4,0,462.9,0,694.3,0c0,231.4,0,462.9,0,694.3
			C353.4,564.9,122,564.9-109.4,564.9z M135.9,289.4c2.7,0.6,92.3,0.6,94.2,0c0.5-3.7,0.3-82.3-0.3-84.4c-0.8,0-1.6,0-2.5,0
			c-19.3,0-38.7,0-58,0c-1.7,0-3,0.2-3.7,2c-0.3,0.7-0.9,1.3-1.4,1.8c-4.9,4.9-9.8,9.8-14.7,14.7c-2.2,2.1-4.8,3.2-8,3.2
			c-4.9-0.1-9.9-0.2-14.8,0c-4,0.2-7-1.3-9.7-4.1c-4.3-4.3-8.6-8.6-12.9-12.9c-0.8-0.9-1.8-1.7-2.3-2.8c-0.8-1.8-2-2-3.7-2
			c-17.1,0-34.2,0-51.2,0c-0.8,0-1.7,0.1-2.5,0.1c-0.5,3.4-0.4,82.4,0.1,84.3c2.4,0.6,85.2,0.5,87.4-0.1c0.2-8.2,0.4-16.5,0.6-24.8
			c0.2-8.3,0.4-16.6,0.7-24.8c0.7,8.3,1.1,16.6,1.5,24.9C135.1,272.9,135.5,281.2,135.9,289.4z M261.9,200.4c0-7.6,0-15.1,0-22.8
			c1.3,0,2.3,0,3.2,0c6.7,0,13.4,0,20,0c2.1,0,4.2-0.1,6.2-0.5c6.4-1,11-4.4,13.1-10.7c0.6-2,1.2-4,1.4-6.1c0.9-9,0.9-18,0-27
			c-0.2-2.4-0.9-4.8-1.7-7c-1.8-5.1-5.5-8.4-10.7-9.6c-2-0.5-4.1-0.9-6.2-0.9c-13.9-0.1-27.8,0-41.6,0c-0.7,0-1.3,0.1-1.9,0.2
			c-0.5,3.6-0.3,82.5,0.2,84.4C249.8,200.4,255.7,200.4,261.9,200.4z M216.2,168.9c0.1,0.8,0.2,1.1,0.2,1.4c0,3.2,0.1,6.4,0,9.6
			c-0.1,4.4-1.9,6.2-6.2,6.1c-10-0.4-20.1-0.9-30.1-1.4c-2-0.1-4.1-0.5-6.1-0.1c0,5.3,0,10.5,0,15.9c1.1,0,2,0,2.9,0
			c15.9,0,31.7-0.1,47.6,0.1c2.5,0,4.1-0.9,5.5-2.7c2.3-2.9,3.6-6.2,4-9.7c1-7.5,1-15,0-22.6c-0.2-1.4-0.6-2.9-1.1-4.3
			c-1.9-5.6-5.7-9.2-11.6-10.4c-2.5-0.5-5-0.7-7.5-0.7c-5.5-0.1-11.1,0-16.7,0c-3.6,0-5.4-1.7-5.8-5.3c-0.2-1.5-0.2-2.9-0.1-4.4
			c0.1-5.7,1.9-7.4,7.6-7.4c9,0,18,0,27.1,0c0.9,0,1.8-0.1,2.7-0.2c0.5-4.1,0.4-15.2-0.2-17.1c-0.5,0-1-0.1-1.5-0.1
			c-11.6,0-23.2,0-34.9,0c-1.8,0-3.6,0.3-5.4,0.7c-6,1.3-10,5-11.8,10.8c-0.4,1.2-0.8,2.5-1,3.8c-1.2,6.9-1,13.8-0.3,20.7
			c0.2,2.1,0.8,4.3,1.5,6.3c1.9,5.5,5.9,8.9,11.6,10.1c2.1,0.4,4.3,0.6,6.4,0.7c6.8,0.1,13.5,0,20.3,0
			C214.2,168.9,215.1,168.9,216.2,168.9z M124,115.8c-2.1,5.1-26,82.7-26,84.6c6.4,0,12.8,0,19.3,0c1.4-4.5,2.7-9,4.1-13.5
			c8.5,0,16.8,0,25.2,0c1.4,4.5,2.7,9,4.1,13.5c6.6,0.1,13.1,0,19.8,0c-8.9-28.5-17.6-56.6-26.3-84.7
			C137.3,115.8,130.7,115.8,124,115.8z M449.4,267.3c0.1-0.8,0.1-1.2,0.2-1.5c0-6.9,0.1-13.9,0-20.8c-0.1-2.7-0.4-5.4-1-8
			c-1.9-8.1-7.5-12.3-15.7-12.4c-6.6,0-13.2,0-19.8,0c-7.9,0-13.4,4.2-15.3,11.8c-0.7,2.7-1,5.5-1,8.2c-0.1,9.6-0.1,19.3,0,28.9
			c0,1.8,0.2,3.6,0.4,5.4c0.5,3.3,1.8,6.3,4,8.9c1,1.2,2.2,1.7,3.8,1.7c13.4-0.1,26.7,0,40.1,0c0.7,0,1.5-0.1,2.3-0.2
			c0-4.9,0-9.6,0-14.5c-0.8,0-1.5,0-2.2,0c-3.5,0.3-7.1,0.6-10.6,0.8c-5.2,0.3-10.4,0.6-15.6,0.8c-2.5,0.1-4-1-4.2-3.2
			c-0.2-1.9,0-3.8,0-5.9C426.3,267.3,437.7,267.3,449.4,267.3z M313,285.6c0.3,1.4,0.6,2.7,0.9,3.8c5.4,0,10.5,0,15.8,0
			c0-0.6,0.1-1.1,0.1-1.6c0-15.2,0-30.3,0-45.5c0-2.1-0.4-4.3-0.9-6.4c-1.6-5.9-6.2-11.6-14.9-11.3c-6.4,0.3-12.8,0.5-19.2,0.9
			c-4.5,0.3-8.9,1-13.6,1.5c-0.1,5.3-0.2,10.3,0,15.4c0.9,0,1.4,0,1.9,0c4.4-0.4,8.8-0.9,13.2-1.2c3.9-0.3,7.8-0.5,11.7-0.5
			c2.2,0,3.5,1,3.8,3.1c0.4,1.9,0.4,3.9-0.1,6c-1,0-2,0-2.9,0c-6.2,0-12.3,0-18.5,0.1c-3.8,0.1-7,1.6-9.6,4.5
			c-2,2.2-3.4,4.9-3.9,7.8c-1.1,5.6-0.9,11.2-0.2,16.8c0.4,3.4,1.9,6.5,4.2,9.1c0.9,1,2,1.5,3.4,1.5c6.8-0.1,13.7,0,20.5-0.1
			c1.1,0,2.4-0.4,3.4-0.9C309.7,287.8,311.3,286.7,313,285.6z M95.9,184.3c-3.9,0.3-7.6,0.7-11.3,0.8c-7.3,0.4-14.5,0.6-21.8,0.9
			c-2.4,0.1-4.3-1.3-5-4c-0.2-0.8-0.3-1.7-0.3-2.6c0-12.9,0-25.8,0-38.8c0-5.9,2.4-7.7,7.7-7.6c9.3,0.1,18.6,0,27.8,0
			c0.9,0,1.8-0.1,2.7-0.2c0.5-4,0.4-15.2-0.2-17.2c-0.9,0-1.8,0-2.8,0c-9.9,0-19.8,0-29.7,0c-2,0-4-0.1-6,0.1
			c-9.3,0.5-14.8,5-16.7,14.2c-0.8,3.5-1.1,7.2-1.1,10.8c-0.1,12.9-0.1,25.8,0,38.8c0,3.7,0.6,7.4,1.2,11.1c0.6,3.2,2.1,6,4.5,8.4
			c1,1,2.1,1.6,3.7,1.6c15.1-0.1,30.2,0,45.3,0c0.7,0,1.3-0.1,2-0.2C95.9,194.9,95.9,189.8,95.9,184.3z M385.4,242.1
			c0-5.6,0-10.7,0-15.9c-0.4-0.1-0.6-0.2-0.9-0.2c-11.6,0-23.2-0.1-34.9,0c-3.7,0-6.8,1.8-9.3,4.6c-2.1,2.3-3.3,5.1-3.9,8.1
			c-0.9,4.9-0.9,9.9-0.2,14.8c1.4,9.2,7.1,13.9,16.4,13.9c5.7,0,11.4,0,17.2,0c0.9,0,1.8,0.1,2.9,0.1c0,1.6,0.1,2.9,0,4.2
			c-0.1,3-1.5,4.3-4.4,4.2c-5.5-0.1-10.9-0.4-16.4-0.7c-4.9-0.3-9.8-0.7-14.9-1.1c0,5.2,0,10.2,0,15.3c0.4,0.1,0.7,0.2,0.9,0.2
			c15,0,30,0,45,0c1.2,0,2-0.4,2.7-1.2c2.3-2.6,3.8-5.6,4.3-9c0.8-5.2,0.9-10.4,0-15.5c-0.4-2.2-1.3-4.4-2.3-6.3
			c-2.2-3.9-5.6-6.3-10.2-6.8c-0.9-0.1-1.9-0.1-2.9-0.1c-5.6,0-11.3,0-16.9,0c-2.7,0-4.1-1.6-4.1-4.3c0-2.7,1.5-4.2,4.2-4.2
			c8.2,0,16.3,0,24.5,0C383.3,242.1,384.3,242.1,385.4,242.1z M271.9,277.6c-1.3,0-2.3,0-3.3,0c-5.6,0-6.4-0.8-6.4-6.5
			c0-21,0-42,0-62.9c0-1,0-2,0-2.9c-3.7-0.6-16.6-0.5-18.4,0.2c0,0.5-0.1,1-0.1,1.5c-0.3,25.8,0.2,51.7,2,77.4
			c0.1,0.9,0.1,1.7,0.4,2.6c0.7,2.2,1.4,2.7,3.8,2.7c6.6,0,13.2,0,19.8,0c0.8,0,1.5-0.1,2.4-0.1
			C271.9,285.5,271.9,281.7,271.9,277.6z"/>
		<path d="M135.9,289.4c-0.4-8.2-0.8-16.5-1.2-24.8c-0.4-8.3-0.8-16.6-1.5-24.9c-0.2,8.3-0.5,16.6-0.7,24.8
			c-0.2,8.3-0.4,16.6-0.6,24.8c-2.2,0.6-85.1,0.7-87.4,0.1c-0.5-1.9-0.6-81-0.1-84.3c0.8,0,1.6-0.1,2.5-0.1c17.1,0,34.2,0,51.2,0
			c1.7,0,3,0.3,3.7,2c0.5,1.1,1.4,1.9,2.3,2.8c4.3,4.3,8.6,8.6,12.9,12.9c2.7,2.7,5.8,4.2,9.7,4.1c4.9-0.2,9.9-0.1,14.8,0
			c3.1,0.1,5.8-1,8-3.2c4.9-4.9,9.8-9.8,14.7-14.7c0.5-0.5,1.1-1.2,1.4-1.8c0.7-1.8,2-2,3.7-2c19.3,0,38.7,0,58,0c0.9,0,1.7,0,2.5,0
			c0.6,2.1,0.7,80.7,0.3,84.4C228.1,290,138.5,290.1,135.9,289.4z M146.3,271.6c4.2-0.5,7.9-2.4,11.8-3.7c3.9-1.3,7.8-2.7,11.6-4.1
			c4-1.4,7.9-2.8,11.9-4.3c3.9-1.4,7.8-2.9,12.1-4.5c-1.2-2.7-2.3-5.3-3.5-8c-3.9,2.1-7.7,4.1-11.4,6.1c-3.6,2-7.3,3.9-10.9,5.9
			c-3.7,2-7.5,3.9-11.1,6C153.3,267.1,149.4,268.7,146.3,271.6z M78.6,247.1c-0.9,2.1-1.8,4.1-2.7,6.1c-0.7,1.7-0.7,1.8,0.9,2.4
			c2.4,0.9,4.9,1.6,7.3,2.5c11.3,4.1,22.6,8.2,33.8,12.3c0.7,0.2,1.3,0.5,2,0.8c0.2-0.1,0.3-0.3,0.5-0.4c-0.2-0.5-0.3-1.2-0.7-1.6
			c-0.4-0.4-1-0.6-1.5-0.9c-8-4.3-16.1-8.7-24.1-13C88.9,252.6,83.9,249.9,78.6,247.1z M147.5,280.1c0.6,0,1.3,0.1,2,0
			c1.2-0.2,2.3-0.4,3.5-0.6c2.4-0.4,4.8-0.6,7.2-1c3.1-0.5,6.2-1,9.4-1.5c2.4-0.4,4.8-0.6,7.2-1c0.6-0.1,1.2-0.6,1.8-0.9
			c-0.6-2-1.1-3.9-1.7-6c-0.9,0.2-1.6,0.3-2.3,0.6c-6.5,2.1-12.9,4.1-19.3,6.2c-2.3,0.7-4.5,1.6-6.8,2.3
			C147.1,278.5,147,279,147.5,280.1z M119.6,277.7c-4.6-1.5-9.2-3-13.8-4.4c-4.6-1.4-9-3.2-13.8-4.3c-0.6,2.2-1.1,4.1-1.7,6.2
			c1.1,0.3,2,0.6,3,0.8c0.8,0.2,1.7,0.2,2.6,0.3c5.1,0.8,10.2,1.5,15.3,2.3c2.5,0.4,4.9,0.9,7.4,1.3c0.2,0,0.5,0,0.8,0
			C119.4,279.2,119.5,278.6,119.6,277.7z M167.1,242.1c-3.7,4-7.5,7.7-10.8,11.8c-3.3,4.1-7.5,7.5-10.5,11.9
			c0.1,0.2,0.3,0.3,0.4,0.5c8.5-6.3,17-12.5,25.7-19C170.2,245.4,168.7,243.8,167.1,242.1z M120.9,264.8c0-1,0.2-1.6,0-1.8
			c-6.3-7-12.6-13.9-19-21c-1.5,1.9-3.5,3.1-4.6,5.4C105,253.1,112.7,258.8,120.9,264.8z"/>
		<path d="M261.9,200.4c-6.2,0-12.1,0-17.9,0c-0.5-1.9-0.6-80.8-0.2-84.4c0.6-0.1,1.3-0.2,1.9-0.2c13.9,0,27.8,0,41.6,0
			c2.1,0,4.1,0.4,6.2,0.9c5.3,1.3,8.9,4.5,10.7,9.6c0.8,2.3,1.5,4.7,1.7,7c0.8,9,0.9,18,0,27c-0.2,2-0.8,4.1-1.4,6.1
			c-2.1,6.3-6.7,9.7-13.1,10.7c-2,0.3-4.1,0.4-6.2,0.5c-6.7,0.1-13.4,0-20,0c-0.9,0-1.9,0-3.2,0
			C261.9,185.3,261.9,192.7,261.9,200.4z M262,160c0.9,0,1.7,0.1,2.5,0.1c5.6,0,11.3,0,16.9,0c4.4,0,6.4-1.7,6.7-6.2
			c0.2-4.8,0.2-9.7,0-14.5c-0.2-4.5-2.3-6.3-6.8-6.3c-5.7,0-11.4,0-17.2,0c-0.7,0-1.3,0.1-2.1,0.2C262,142.3,262,151.1,262,160z"/>
		<path d="M216.2,168.9c-1.1,0-2.1,0-3,0c-6.8,0-13.5,0.1-20.3,0c-2.2,0-4.3-0.2-6.4-0.7c-5.7-1.2-9.6-4.6-11.6-10.1
			c-0.7-2-1.3-4.2-1.5-6.3c-0.7-6.9-0.9-13.8,0.3-20.7c0.2-1.3,0.6-2.5,1-3.8c1.9-5.9,5.8-9.5,11.8-10.8c1.8-0.4,3.6-0.7,5.4-0.7
			c11.6-0.1,23.2,0,34.9,0c0.5,0,1,0.1,1.5,0.1c0.6,1.8,0.7,13,0.2,17.1c-0.8,0.1-1.8,0.2-2.7,0.2c-9,0-18,0-27.1,0
			c-5.7,0-7.5,1.8-7.6,7.4c0,1.5,0,3,0.1,4.4c0.4,3.6,2.2,5.2,5.8,5.3c5.6,0,11.1-0.1,16.7,0c2.5,0,5,0.2,7.5,0.7
			c5.9,1.1,9.7,4.8,11.6,10.4c0.5,1.4,0.9,2.8,1.1,4.3c1,7.5,1,15,0,22.6c-0.5,3.6-1.8,6.9-4,9.7c-1.4,1.8-3.1,2.7-5.5,2.7
			c-15.9-0.1-31.7-0.1-47.6-0.1c-0.9,0-1.9,0-2.9,0c0-5.4,0-10.6,0-15.9c2.1-0.4,4.1,0,6.1,0.1c10,0.5,20.1,1,30.1,1.4
			c4.4,0.2,6.1-1.7,6.2-6.1c0.1-3.2,0-6.4,0-9.6C216.4,170,216.3,169.6,216.2,168.9z"/>
		<path d="M124,115.8c6.7,0,13.3,0,20.2,0c8.7,28,17.4,56.1,26.3,84.7c-6.8,0-13.2,0-19.8,0c-1.4-4.5-2.7-9-4.1-13.5
			c-8.5,0-16.7,0-25.2,0c-1.4,4.5-2.7,9-4.1,13.5c-6.5,0-12.9,0-19.3,0C98,198.5,121.9,120.9,124,115.8z M126.1,170.3
			c3.4,0.7,14,0.5,15.8-0.2c-2.6-9.1-5-18.2-8.1-27.2C131.2,152,128.7,161,126.1,170.3z"/>
		<path d="M449.4,267.3c-11.6,0-23.1,0-34.9,0c0,2.2-0.2,4.1,0,5.9c0.3,2.3,1.7,3.3,4.2,3.2c5.2-0.2,10.4-0.4,15.6-0.8
			c3.5-0.2,7.1-0.6,10.6-0.8c0.7-0.1,1.3,0,2.2,0c0,4.9,0,9.6,0,14.5c-0.8,0.1-1.6,0.2-2.3,0.2c-13.4,0-26.7,0-40.1,0
			c-1.6,0-2.8-0.5-3.8-1.7c-2.2-2.6-3.5-5.6-4-8.9c-0.3-1.8-0.4-3.6-0.4-5.4c0-9.6-0.1-19.3,0-28.9c0-2.7,0.4-5.6,1-8.2
			c1.9-7.7,7.4-11.8,15.3-11.8c6.6,0,13.2,0,19.8,0c8.3,0,13.8,4.3,15.7,12.4c0.6,2.6,1,5.3,1,8c0.1,6.9,0,13.9,0,20.8
			C449.5,266.1,449.5,266.5,449.4,267.3z M431.4,251.7c0-2.8,0.1-5.3,0-7.8c-0.1-2.3-1.4-3.6-3.6-3.6c-3.2-0.1-6.4-0.1-9.6,0
			c-2,0.1-3.2,1-3.5,2.9c-0.5,2.8-0.3,5.6-0.1,8.6C420.3,251.7,425.7,251.7,431.4,251.7z"/>
		<path d="M313,285.6c-1.7,1.1-3.2,2.2-4.9,3c-1,0.5-2.3,0.9-3.4,0.9c-6.8,0.1-13.7,0-20.5,0.1c-1.4,0-2.4-0.4-3.4-1.5
			c-2.3-2.6-3.8-5.7-4.2-9.1c-0.7-5.6-0.9-11.2,0.2-16.8c0.6-2.9,1.9-5.6,3.9-7.8c2.6-2.8,5.8-4.4,9.6-4.5
			c6.2-0.1,12.3-0.1,18.5-0.1c0.9,0,1.9,0,2.9,0c0.6-2.1,0.5-4.1,0.1-6c-0.4-2.1-1.6-3.2-3.8-3.1c-3.9,0.1-7.8,0.3-11.7,0.5
			c-4.4,0.3-8.8,0.8-13.2,1.2c-0.5,0-1,0-1.9,0c-0.1-5.1-0.1-10.1,0-15.4c4.6-0.5,9.1-1.2,13.6-1.5c6.4-0.4,12.8-0.7,19.2-0.9
			c8.7-0.3,13.2,5.4,14.9,11.3c0.6,2.1,0.9,4.3,0.9,6.4c0.1,15.2,0,30.3,0,45.5c0,0.5-0.1,1-0.1,1.6c-5.3,0-10.5,0-15.8,0
			C313.6,288.3,313.3,287,313,285.6z M311.9,265.6c-5.1,0-10-0.1-14.9,0.1c-2,0.1-3,1.9-3.1,4.4c-0.1,2.8,0.9,4.5,2.7,5
			c0.2,0.1,0.5,0.1,0.8,0.1c5,0.2,9.8-0.5,14.5-2.5C311.9,270.4,311.9,268.1,311.9,265.6z"/>
		<path d="M95.9,184.3c0,5.5,0,10.6,0,16c-0.7,0.1-1.3,0.2-2,0.2c-15.1,0-30.2,0-45.3,0c-1.5,0-2.6-0.5-3.7-1.6
			c-2.3-2.3-3.9-5.2-4.5-8.4c-0.7-3.6-1.2-7.4-1.2-11.1c-0.1-12.9-0.1-25.8,0-38.8c0-3.6,0.4-7.3,1.1-10.8
			c1.9-9.1,7.4-13.6,16.7-14.2c2-0.1,4-0.1,6-0.1c9.9,0,19.8,0,29.7,0c0.9,0,1.9,0,2.8,0c0.6,1.9,0.8,13.1,0.2,17.2
			c-0.8,0.1-1.8,0.2-2.7,0.2c-9.3,0-18.6,0.1-27.8,0c-5.3-0.1-7.7,1.7-7.7,7.6c-0.1,12.9,0,25.8,0,38.8c0,0.9,0.1,1.7,0.3,2.6
			c0.6,2.7,2.6,4.2,5,4c7.3-0.4,14.5-0.6,21.8-0.9C88.3,185,92,184.6,95.9,184.3z"/>
		<path d="M385.4,242.1c-1.2,0-2.1,0-3,0c-8.2,0-16.3,0-24.5,0c-2.7,0-4.2,1.5-4.2,4.2c0,2.6,1.5,4.3,4.1,4.3c5.6,0.1,11.3,0,16.9,0
			c1,0,1.9,0,2.9,0.1c4.5,0.6,8,2.9,10.2,6.8c1.1,1.9,1.9,4.1,2.3,6.3c0.9,5.1,0.9,10.4,0,15.5c-0.5,3.4-2,6.4-4.3,9
			c-0.7,0.8-1.5,1.2-2.7,1.2c-15,0-30,0-45,0c-0.2,0-0.5-0.1-0.9-0.2c0-5,0-10.1,0-15.3c5,0.4,10,0.8,14.9,1.1
			c5.5,0.3,10.9,0.5,16.4,0.7c3,0.1,4.3-1.3,4.4-4.2c0.1-1.3,0-2.6,0-4.2c-1.1-0.1-2-0.1-2.9-0.1c-5.7,0-11.4,0-17.2,0
			c-9.4,0-15-4.6-16.4-13.9c-0.7-4.9-0.7-9.9,0.2-14.8c0.5-3,1.8-5.8,3.9-8.1c2.5-2.8,5.6-4.5,9.3-4.6c11.6-0.1,23.2,0,34.9,0
			c0.2,0,0.5,0.1,0.9,0.2C385.4,231.4,385.4,236.5,385.4,242.1z"/>
		<path d="M271.9,277.6c0,4.2,0,8,0,11.9c-0.9,0.1-1.6,0.1-2.4,0.1c-6.6,0-13.2,0-19.8,0c-2.4,0-3-0.4-3.8-2.7
			c-0.3-0.8-0.3-1.7-0.4-2.6c-1.8-25.8-2.3-51.6-2-77.4c0-0.5,0.1-1,0.1-1.5c1.8-0.6,14.8-0.8,18.4-0.2c0,0.9,0,1.9,0,2.9
			c0,21,0,42,0,62.9c0,5.7,0.8,6.5,6.4,6.5C269.6,277.6,270.7,277.6,271.9,277.6z"/>
		<path class="st0" d="M146.3,271.6c3.1-2.9,7-4.5,10.6-6.5c3.7-2.1,7.4-4,11.1-6c3.6-2,7.3-4,10.9-5.9c3.7-2,7.4-4,11.4-6.1
			c1.2,2.7,2.3,5.3,3.5,8c-4.3,1.6-8.2,3-12.1,4.5c-3.9,1.4-7.9,2.9-11.9,4.3c-3.9,1.4-7.7,2.8-11.6,4.1
			C154.2,269.2,150.5,271.1,146.3,271.6z"/>
		<path class="st0" d="M78.6,247.1c5.3,2.8,10.3,5.5,15.4,8.3c8,4.3,16.1,8.7,24.1,13c0.5,0.3,1.2,0.5,1.5,0.9
			c0.4,0.4,0.5,1.1,0.7,1.6c-0.2,0.1-0.3,0.3-0.5,0.4c-0.7-0.3-1.3-0.6-2-0.8c-11.3-4.1-22.6-8.2-33.8-12.3
			c-2.4-0.9-4.9-1.7-7.3-2.5c-1.6-0.6-1.7-0.8-0.9-2.4C76.8,251.2,77.7,249.2,78.6,247.1z"/>
		<path class="st0" d="M147.5,280.1c-0.5-1.1-0.3-1.7,0.8-2c2.3-0.7,4.5-1.5,6.8-2.3c6.4-2.1,12.9-4.1,19.3-6.2
			c0.7-0.2,1.5-0.3,2.3-0.6c0.6,2.1,1.1,3.9,1.7,6c-0.6,0.3-1.2,0.8-1.8,0.9c-2.4,0.4-4.8,0.7-7.2,1c-3.1,0.5-6.2,1-9.4,1.5
			c-2.4,0.4-4.8,0.7-7.2,1c-1.2,0.2-2.3,0.5-3.5,0.6C148.8,280.2,148.1,280.1,147.5,280.1z"/>
		<path class="st0" d="M119.6,277.7c-0.1,0.8-0.2,1.5-0.2,2.2c-0.3,0-0.6,0-0.8,0c-2.5-0.4-4.9-0.9-7.4-1.3
			c-5.1-0.8-10.2-1.5-15.3-2.3c-0.9-0.1-1.7-0.1-2.6-0.3c-1-0.2-1.9-0.5-3-0.8c0.6-2.1,1.1-4,1.7-6.2c4.8,1.1,9.2,2.9,13.8,4.3
			C110.4,274.8,115,276.2,119.6,277.7z"/>
		<path class="st0" d="M167.1,242.1c1.7,1.8,3.2,3.3,4.9,5.1c-8.7,6.4-17.2,12.7-25.7,19c-0.1-0.2-0.3-0.3-0.4-0.5
			c3-4.4,7.1-7.8,10.5-11.9C159.6,249.8,163.3,246.1,167.1,242.1z"/>
		<path class="st0" d="M120.9,264.8c-8.2-6-15.9-11.7-23.7-17.5c1.1-2.3,3.1-3.5,4.6-5.4c6.4,7.1,12.7,14,19,21
			C121.1,263.2,120.9,263.8,120.9,264.8z"/>
		<path class="st0" d="M262,160c0-8.9,0-17.7,0-26.7c0.7-0.1,1.4-0.2,2.1-0.2c5.7,0,11.4,0,17.2,0c4.5,0,6.6,1.8,6.8,6.3
			c0.2,4.8,0.2,9.7,0,14.5c-0.2,4.5-2.2,6.1-6.7,6.2c-5.6,0-11.3,0-16.9,0C263.7,160.1,262.9,160.1,262,160z"/>
		<path class="st0" d="M126.1,170.3c2.6-9.3,5.1-18.3,7.6-27.4c3.2,9,5.6,18.1,8.1,27.2C140.1,170.8,129.4,171,126.1,170.3z"/>
		<path class="st0" d="M431.4,251.7c-5.7,0-11.1,0-16.8,0c-0.2-2.9-0.4-5.8,0.1-8.6c0.3-1.9,1.5-2.8,3.5-2.9c3.2-0.1,6.4-0.1,9.6,0
			c2.2,0.1,3.5,1.3,3.6,3.6C431.5,246.4,431.4,248.9,431.4,251.7z"/>
		<path class="st0" d="M311.9,265.6c0,2.5,0,4.8,0,7.2c-4.7,2-9.5,2.7-14.5,2.5c-0.3,0-0.5-0.1-0.8-0.1c-1.9-0.5-2.8-2.3-2.7-5
			c0.1-2.5,1.1-4.4,3.1-4.4C301.9,265.5,306.8,265.6,311.9,265.6z"/>
	</g>
</g>
<text transform="matrix(0.9981 0 0 1 41.108 354.0279)" class="st1 st2">nagravirovku.ru</text>
</svg>
